{
  "probe": {
    "streams": [
      {
        "index": 0,
        "codec_name": "hevc",
        "codec_long_name": "H.265 / HEVC (High Efficiency Video Coding)",
        "profile": "Main",
        "codec_type": "video",
        "codec_tag_string": "hvc1",
        "codec_tag": "0x31637668",
        "width": 1280,
        "height": 720,
        "coded_width": 1280,
        "coded_height": 720,
        "closed_captions": 0,
        "film_grain": 0,
        "has_b_frames": 2,
        "pix_fmt": "yuv420p",
        "level": 93,
        "color_range": "tv",
        "color_space": "bt709",
        "color_transfer": "bt709",
        "color_primaries": "bt709",
        "chroma_location": "topleft",
        "field_order": "progressive",
        "refs": 1,
        "view_ids_available": "",
        "view_pos_available": "",
        "id": "0x1",
        "r_frame_rate": "24/1",
        "avg_frame_rate": "24/1",
        "time_base": "1/12288",
        "start_pts": 0,
        "start_time": "0.000000",
        "duration_ts": 61952,
        "duration": "5.041667",
        "bit_rate": "497257",
        "nb_frames": "121",
        "extradata_size": 2459,
        "disposition": {
          "default": 1,
          "dub": 0,
          "original": 0,
          "comment": 0,
          "lyrics": 0,
          "karaoke": 0,
          "forced": 0,
          "hearing_impaired": 0,
          "visual_impaired": 0,
          "clean_effects": 0,
          "attached_pic": 0,
          "timed_thumbnails": 0,
          "non_diegetic": 0,
          "captions": 0,
          "descriptions": 0,
          "metadata": 0,
          "dependent": 0,
          "still_image": 0,
          "multilayer": 0
        },
        "tags": {
          "language": "eng",
          "handler_name": "Apple Video Media Handler",
          "vendor_id": "[0][0][0][0]",
          "encoder": "Lavc61.19.100 libx265",
          "timecode": "00:00:00:00"
        }
      },
      {
        "index": 1,
        "codec_name": "aac",
        "codec_long_name": "AAC (Advanced Audio Coding)",
        "profile": "LC",
        "codec_type": "audio",
        "codec_tag_string": "mp4a",
        "codec_tag": "0x6134706d",
        "sample_fmt": "fltp",
        "sample_rate": "48000",
        "channels": 6,
        "channel_layout": "5.1",
        "bits_per_sample": 0,
        "initial_padding": 0,
        "id": "0x2",
        "r_frame_rate": "0/0",
        "avg_frame_rate": "0/0",
        "time_base": "1/48000",
        "start_pts": 0,
        "start_time": "0.000000",
        "duration_ts": 240624,
        "duration": "5.013000",
        "bit_rate": "348454",
        "nb_frames": "236",
        "extradata_size": 5,
        "disposition": {
          "default": 1,
          "dub": 0,
          "original": 0,
          "comment": 0,
          "lyrics": 0,
          "karaoke": 0,
          "forced": 0,
          "hearing_impaired": 0,
          "visual_impaired": 0,
          "clean_effects": 0,
          "attached_pic": 0,
          "timed_thumbnails": 0,
          "non_diegetic": 0,
          "captions": 0,
          "descriptions": 0,
          "metadata": 0,
          "dependent": 0,
          "still_image": 0,
          "multilayer": 0
        },
        "tags": {
          "language": "eng",
          "handler_name": "Apple Sound Media Handler",
          "vendor_id": "[0][0][0][0]"
        }
      },
      {
        "index": 2,
        "codec_type": "data",
        "codec_tag_string": "tmcd",
        "codec_tag": "0x64636d74",
        "id": "0x3",
        "r_frame_rate": "0/0",
        "avg_frame_rate": "12288/512",
        "time_base": "1/12288",
        "start_pts": 0,
        "start_time": "0.000000",
        "duration_ts": 61952,
        "duration": "5.041667",
        "bit_rate": "6",
        "nb_frames": "1",
        "extradata_size": 20,
        "disposition": {
          "default": 0,
          "dub": 0,
          "original": 0,
          "comment": 0,
          "lyrics": 0,
          "karaoke": 0,
          "forced": 0,
          "hearing_impaired": 0,
          "visual_impaired": 0,
          "clean_effects": 0,
          "attached_pic": 0,
          "timed_thumbnails": 0,
          "non_diegetic": 0,
          "captions": 0,
          "descriptions": 0,
          "metadata": 0,
          "dependent": 0,
          "still_image": 0,
          "multilayer": 0
        },
        "tags": {
          "language": "eng",
          "handler_name": "Apple Video Media Handler",
          "timecode": "00:00:00:00"
        }
      }
    ],
    "format": {
      "filename": "/Users/tanner/bash/ts/media/hevc-h265.hvc1.mp4",
      "nb_streams": 3,
      "nb_programs": 0,
      "nb_stream_groups": 0,
      "format_name": "mov,mp4,m4a,3gp,3g2,mj2",
      "format_long_name": "QuickTime / MOV",
      "start_time": "0.000000",
      "duration": "5.041667",
      "size": "540815",
      "bit_rate": "858152",
      "probe_score": 100,
      "tags": {
        "minor_version": "512",
        "major_brand": "isom",
        "compatible_brands": "isomiso2avc1mp41",
        "encoder": "Lavf61.7.100"
      }
    }
  }
}